# xmcd
#
# Track frame offsets: 
#        150
#        12503
#        25847
#        39514
#        53317
#        63802
#        76674
#        90544
#        101871
#        114431
#        127187
#        141766
#        152678
#        166665
#        179667
#        191853
#        204383
#        216292
#        227713
#        239558
#        251285
#        266176
#        279495
#        293817
#        306835
#
# Disc length: 4274 seconds
#
# Revision: 1
# Processed by: cddbd v1.5.2PL0 Copyright (c) Steve Scherf et al.
# Submitted via: ExactAudioCopy v0.99pb4
#
DISCID=6010b019
DTITLE=Django Reinhardt - Golden Greats (3)
DYEAR=2002
DGENRE=Jazz
TTITLE0=Bugle call rag
TTITLE1=Japanese sandman
TTITLE2=I'm coming Virginia
TTITLE3=Solid old man
TTITLE4=Finesse (Night wind)
TTITLE5=Hangin' around Boudon
TTITLE6=You rascal you
TTITLE7=I'll see you in my dreams
TTITLE8=Tea for two
TTITLE9=At Jimmy's bar
TTITLE10=Stéphane's blues
TTITLE11=Naguine
TTITLE12=Echoes of Spain
TTITLE13=It had to be you
TTITLE14=Improvisation
TTITLE15=Please be kind
TTITLE16=Louise
TTITLE17=I've got my love to keep me warm
TTITLE18=Django's tiger
TTITLE19=How high the moon
TTITLE20=Lover man
TTITLE21=Belleville
TTITLE22=Love's melody
TTITLE23=Liza
TTITLE24=Nuages
EXTD=YEAR: 2002
EXTT0=
EXTT1=
EXTT2=
EXTT3=
EXTT4=
EXTT5=
EXTT6=
EXTT7=
EXTT8=
EXTT9=
EXTT10=
EXTT11=
EXTT12=
EXTT13=
EXTT14=
EXTT15=
EXTT16=
EXTT17=
EXTT18=
EXTT19=
EXTT20=
EXTT21=
EXTT22=
EXTT23=
EXTT24=
PLAYORDER=
